<?xml version="1.0" encoding="UTF-8"?>
<svg id="Capa_2" data-name="Capa 2" xmlns="http://www.w3.org/2000/svg" xmlns:xlink="http://www.w3.org/1999/xlink" viewBox="0 0 2068.4 2057.63">
  <defs>
    <style>
      .cls-1 {
        fill: #fff;
      }

      .cls-2 {
        fill: url(#Degradado_sin_nombre_57);
      }
    </style>
    <linearGradient id="Degradado_sin_nombre_57" data-name="Degradado sin nombre 57" x1="1485.83" y1="-212.04" x2="582.57" y2="2269.67" gradientUnits="userSpaceOnUse">
      <stop offset="0" stop-color="#d854ff"/>
      <stop offset=".11" stop-color="#c349ec"/>
      <stop offset=".54" stop-color="#7722a5"/>
      <stop offset=".85" stop-color="#470979"/>
      <stop offset="1" stop-color="#350069"/>
    </linearGradient>
  </defs>
  <g id="Capa_1-2" data-name="Capa 1">
    <g>
      <rect class="cls-2" width="2068.4" height="2057.63"/>
      <path class="cls-1" d="M664.82,1536.43c4.82-4.3,11.66-10.07,20.54-17.31,8.88-7.24,20.3-15.98,34.27-26.21,10.75-6.98,18.53-13.71,23.36-20.18,4.82-6.45,7.24-13.19,7.24-20.2,0-25.29-.14-41.43-.4-48.44-.28-7-.4-12.38-.4-16.16,0-51.66,1.33-92.04,4.02-121.11,2.69-29.05,6.17-47.1,10.47-54.11l-1.61-24.22-4.82-5.65c0-5.91,.12-11.16,.4-15.74,.26-4.58,.4-8.48,.4-11.72,0-29.59-13.03-48.44-39.08-56.52-26.07-8.08-39.08-24.5-39.08-49.25,0-7.52,7.52-16.78,22.57-27.8s37.05-24.32,66.07-39.92c3.74-26.33,7.78-55.08,12.08-86.27,4.3-31.16,9.39-65.57,15.3-103.18-2.15-6.98-3.76-12.76-4.84-17.33s-1.61-8.74-1.61-12.5c0-18.81,2.13-36,6.43-51.6,4.3-15.58,10.21-30.37,17.73-44.34,4.82-7.52,10.98-15.72,18.51-24.6,7.52-8.86,16.64-18.67,27.38-29.43,8.6-8.04,15.02-15.16,19.32-21.35,4.3-6.17,6.45-11.14,6.45-14.92,0-4.3-1.75-7.78-5.23-10.47-3.5-2.69-8.46-4.04-14.9-4.04-19.86,0-49.13,6.33-87.78,18.94-38.65,12.64-67.64,18.94-86.98,18.94-6.45,0-11.16-.8-14.11-2.41-2.97-1.61-4.44-4.3-4.44-8.08,0-10.75,.54-20.14,1.61-28.2s2.41-13.71,4.04-16.93c9.11-6.96,16.24-13.69,21.35-20.14,5.09-6.45,7.66-12.9,7.66-19.34,0-2.69,2.81-6.19,8.46-10.49,5.63-4.3,14.63-8.06,27-11.28,49.37-13.97,87.08-24.72,113.11-32.24,26.03-7.52,40.93-11.82,44.69-12.9,30.05-7.52,58.76-13.01,86.15-16.52,27.38-3.48,52.87-5.23,76.51-5.23,2.67,0,8.04,.68,16.1,2.03,8.04,1.35,13.41,1.47,16.1,.4,10.73-1.61,21.99-3.5,33.81-5.65,3.22,0,12.62,1.49,28.18,4.44,15.56,2.97,37.31,7.12,65.23,12.5,5.89-1.07,12.34-2.41,19.32-4.04,15.56,0,28.58,2.43,39.04,7.26s18.65,11.54,24.56,20.14c7.52,1.63,14.77,2.43,21.75,2.43,13.95,0,26.71,3.9,38.25,11.7,11.54,7.8,21.59,18.94,30.19,33.43,7.52,13.99,13.41,27.84,17.71,41.53,4.3,13.71,6.45,27.82,6.45,42.31,0,28.5-6.03,55.5-18.09,81.03-12.06,25.53-30.17,49.31-54.29,71.32-2.69,1.63-15.68,11.16-39,28.64-23.32,17.47-57.23,41.79-101.73,72.95-4.82,3.22-10.45,7.8-16.87,13.71-6.45,5.91-14.21,12.08-23.32,18.53-43.98,26.35-86.33,51.6-127.06,75.78-34.31,18.81-60.32,34.67-78.01,47.56s-26.53,22.03-26.53,27.4c0,10.77,4.54,20.32,13.65,28.66,9.09,8.36,23,15.74,41.75,22.19,27.28,9.71,58.05,20.74,92.31,33.11,34.25,12.38,70.92,27.16,110.01,44.38,3.74,1.07,8.42,3.24,14.03,6.47,5.61,3.22,11.92,6.73,18.88,10.49,46.01,17.23,80.14,38.35,102.34,63.36,22.21,25.03,33.33,53.95,33.33,86.78,0,47.9-43.04,93.37-129.11,136.41-86.07,43.06-214.9,83.96-386.49,122.68-2.69,7.52-5.77,15.04-9.25,22.57-3.48,7.52-6.57,14.77-9.25,21.75-3.76,5.91-9.11,10.61-16.08,14.11-6.96,3.48-15.02,5.23-24.14,5.23-10.19,0-18.25-3.64-24.14-10.87-5.89-7.26-9.91-18.69-12.06-34.27-4.3-3.76-7.78-5.37-10.47-4.84l-45.93,12.1c-5.93-3.22-11.44-6.05-16.54-8.46-5.09-2.45-10.33-4.99-15.7-7.66-5.37-3.22-9.67-7.12-12.9-11.68-3.22-4.6-4.84-9.55-4.84-14.92,0-4.84,1.73-8.74,5.23-11.68,3.48-2.97,8.72-6.59,15.72-10.89Zm247.23-382.65c-8.56,0-15.92,7.4-22.09,22.21-6.17,14.81-11.1,36.75-14.85,65.83-2.15,26.92-4.3,53.99-6.45,81.17-2.15,27.18-4.28,54.25-6.41,81.15-3.22,13.45-5.91,27.72-8.06,42.8l1.61,8.08,6.45,3.22c21.41-5.91,45.23-12.1,71.48-18.57,18.19,0,29.03-1.75,32.52-5.25,3.48-3.5,46.72-23.82,129.73-60.97,35.32-15.08,61.83-29.21,79.5-42.41,17.67-13.17,26.51-24.62,26.51-34.33,0-5.91-2.41-11.56-7.22-16.95-4.82-5.37-12.06-11.02-21.69-16.95-25.17-16.16-53.01-30.82-83.54-44.02-30.53-13.17-63.98-25.15-100.37-35.94-4.82-1.61-10.31-3.36-16.48-5.25-6.17-1.87-12.99-3.9-20.48-6.05-11.78-5.37-20.76-9.69-26.9-12.91-6.17-3.22-10.59-4.86-13.25-4.86Zm156.53-604.79c-20.36,0-36.83,1.49-49.41,4.44-12.58,2.97-21.55,7.66-26.88,14.11-4.3,4.3-8.72,12.64-13.27,24.99s-9.51,29.29-14.85,50.78c-2.15,11.82-3.64,24.99-4.44,39.5-.8,14.53-.94,30.37-.38,47.56-5.89,13.97-12.06,25.81-18.49,35.48l4.02,20.95c-6.43,26.86-10.98,48.38-13.65,64.5-2.69,16.12-4.02,26.86-4.02,32.24,0,8.08,1.59,13.71,4.82,16.93,3.2,3.22,7.76,4.84,13.65,4.84,5.35,0,18.07-5.91,38.15-17.73,20.08-11.82,47.8-29.55,83.16-53.21,39.08-25.79,68.93-45.55,89.55-59.26,20.62-13.69,32.54-21.35,35.76-22.96,6.95-8.6,13.77-17.05,20.48-25.39,6.69-8.32,13.25-16.52,19.68-24.6,9.09-11.28,15.78-21.35,20.08-30.23,4.28-8.86,6.43-16.78,6.43-23.78,0-12.9-4.02-24.44-12.06-34.67-8.04-10.21-20.08-19.08-36.14-26.61-5.37-2.15-14.87-5.37-28.52-9.67-13.65-4.3-31.2-8.6-52.61-12.9-17.67-4.84-31.6-8.6-41.77-11.28-10.19-2.69-16.62-4.04-19.28-4.04Z"/>
    </g>
  </g>
</svg>